<?xml version="1.0" encoding="UTF-8"?>
<svg id="Calque_1" data-name="Calque 1" xmlns="http://www.w3.org/2000/svg" viewBox="0 0 1172.41 602.19">
  <defs>
    <style>
      .cls-1 {
        stroke-width: 20px;
      }

      .cls-1, .cls-2 {
        fill: none;
        stroke: #1d1d1b;
        stroke-miterlimit: 10;
      }

      .cls-2 {
        stroke-width: 18.23px;
      }

      .cls-3 {
        fill: #1d1d1b;
        stroke-width: 0px;
      }
    </style>
  </defs>
  <path class="cls-2" d="M293.84,445.35c-22,43.07-60.63,64.56-109.95,64.56-71.75,0-129.91-61.87-129.91-138.18v-180.09c0-76.31,58.16-138.18,129.91-138.18,35.87,0,68.35,15.46,91.85,40.47,23.51,25.01,38.05,59.55,38.05,97.71v28.72"/>
  <line class="cls-1" x1="160.43" y1="164.94" x2="109.82" y2="220.36"/>
  <line class="cls-1" x1="192.44" y1="192.65" x2="103.29" y2="287.36"/>
  <path class="cls-1" d="M338.45,456.49c-25.74,63.58-82.15,96.88-154.95,96.88-95.82,0-173.5-77.67-173.5-173.49v-196.39C10,87.67,87.68,10,183.5,10c47.91,0,91.28,19.42,122.67,50.81s50.82,74.77,50.82,122.68v36.15"/>
  <g>
    <path class="cls-3" d="M340.11,354.72c5.99,7.38,8.99,15.73,8.99,25.06,0,7.98-2.11,15.16-6.34,21.56-4.23,6.4-10.34,11.44-18.32,15.12-7.99,3.69-17.29,5.53-27.89,5.53h-64.07v-156.89h61.08c10.91,0,20.28,1.81,28.12,5.42,7.84,3.61,13.75,8.47,17.75,14.56,3.99,6.1,5.99,12.91,5.99,20.43,0,9.03-2.46,16.56-7.38,22.57-4.92,6.02-11.52,10.46-19.82,13.32,8.6,1.51,15.9,5.95,21.9,13.32ZM258.76,331.02h32.5c8.6,0,15.33-1.92,20.17-5.76,4.84-3.84,7.26-9.37,7.26-16.59s-2.42-12.6-7.26-16.59c-4.84-3.99-11.56-5.98-20.17-5.98h-32.5v44.92ZM315.22,394.68c5.07-4.21,7.61-10.08,7.61-17.61s-2.69-13.77-8.07-18.29c-5.38-4.51-12.52-6.77-21.43-6.77h-34.57v48.99h35.49c8.91,0,15.9-2.11,20.97-6.32Z"/>
    <path class="cls-3" d="M493.14,369.39h-97.03c.77,9.93,4.53,17.91,11.29,23.93,6.76,6.02,15.06,9.03,24.89,9.03,14.13,0,24.12-5.79,29.96-17.38h28.35c-3.84,11.44-10.8,20.81-20.86,28.1-10.07,7.3-22.55,10.95-37.45,10.95-12.14,0-23.01-2.67-32.61-8.01-9.6-5.34-17.13-12.87-22.59-22.57-5.46-9.71-8.18-20.96-8.18-33.75s2.65-24.04,7.95-33.75c5.3-9.71,12.75-17.19,22.36-22.46,9.6-5.27,20.63-7.9,33.07-7.9s22.66,2.56,32.04,7.68c9.37,5.12,16.67,12.3,21.9,21.56,5.22,9.25,7.84,19.9,7.84,31.94,0,4.67-.31,8.88-.92,12.64ZM466.64,348.62c-.15-9.48-3.61-17.08-10.37-22.8-6.76-5.72-15.14-8.58-25.12-8.58-9.07,0-16.82,2.82-23.28,8.47s-10.3,13.28-11.52,22.91h70.29Z"/>
    <path class="cls-3" d="M519.07,326.05c5.3-9.63,12.52-17.12,21.66-22.46,9.14-5.34,19.25-8.01,30.31-8.01,9.99,0,18.7,1.92,26.16,5.76,7.45,3.84,13.4,8.62,17.86,14.33v-18.06h26.5v124.38h-26.5v-18.51c-4.46,5.87-10.53,10.76-18.21,14.67-7.68,3.91-16.44,5.87-26.27,5.87-10.91,0-20.9-2.74-29.96-8.24-9.07-5.49-16.25-13.17-21.55-23.03-5.3-9.85-7.95-21.03-7.95-33.52s2.65-23.55,7.95-33.18ZM609.65,337.34c-3.61-6.32-8.34-11.14-14.17-14.45-5.84-3.31-12.14-4.97-18.9-4.97s-13.06,1.62-18.9,4.85c-5.84,3.24-10.57,7.98-14.17,14.22-3.61,6.25-5.42,13.66-5.42,22.24s1.8,16.11,5.42,22.57c3.61,6.47,8.37,11.4,14.29,14.79,5.91,3.39,12.17,5.08,18.78,5.08s13.06-1.65,18.9-4.97c5.84-3.31,10.56-8.16,14.17-14.56,3.61-6.4,5.42-13.88,5.42-22.46s-1.81-16.03-5.42-22.35Z"/>
    <path class="cls-3" d="M791.14,297.61v124.38h-26.27v-14.67c-4.15,5.12-9.56,9.14-16.25,12.08s-13.79,4.4-21.32,4.4c-9.99,0-18.94-2.03-26.85-6.09-7.92-4.06-14.14-10.08-18.67-18.06-4.53-7.97-6.8-17.61-6.8-28.89v-73.14h26.04v69.3c0,11.14,2.84,19.68,8.53,25.62,5.68,5.95,13.44,8.92,23.28,8.92s17.63-2.97,23.39-8.92c5.76-5.94,8.64-14.48,8.64-25.62v-69.3h26.27Z"/>
    <path class="cls-3" d="M856.36,318.6v68.85c0,4.67,1.11,8.01,3.34,10.04,2.22,2.03,6.03,3.05,11.41,3.05h16.13v21.45h-20.74c-11.83,0-20.9-2.71-27.2-8.13-6.3-5.42-9.45-14.22-9.45-26.41v-68.85h-14.98v-20.99h14.98v-30.93h26.5v30.93h30.88v20.99h-30.88Z"/>
    <polyline class="cls-3" points="947.12 480.46 892.19 538.92 949.97 600.19 914.94 600.19 868.54 547.39 868.54 600.19 842.61 600.19 842.61 435.33 868.54 435.33 868.54 531.12 920.68 478.6 921.95 477.43 946.48 419.96 896.46 297.61 925.73 297.61 961.46 392.42 998.56 297.61 1025.76 297.61 949.15 477.43"/>
  </g>
  <g>
    <path class="cls-3" d="M438.42,445.35v20.72h-42.08v134.12h-25.93v-134.12h-42.31v-20.72h110.32Z"/>
    <path class="cls-3" d="M505.64,480.66c6.29-3.49,13.76-5.24,22.4-5.24v26.29h-6.6c-10.16,0-17.86,2.53-23.09,7.58-5.23,5.05-7.85,13.81-7.85,26.29v64.61h-25.93v-122.75h25.93v17.82c3.79-6.24,8.83-11.1,15.12-14.59Z"/>
    <path class="cls-3" d="M551.12,505.5c5.23-9.5,12.36-16.89,21.38-22.17,9.02-5.27,18.99-7.91,29.91-7.91,9.86,0,18.46,1.89,25.82,5.68,7.35,3.79,13.23,8.5,17.63,14.15v-17.82h26.16v122.75h-26.16v-18.27c-4.4,5.79-10.39,10.62-17.97,14.48-7.58,3.86-16.23,5.79-25.93,5.79-10.77,0-20.62-2.71-29.57-8.13-8.95-5.42-16.04-12.99-21.27-22.72-5.23-9.73-7.85-20.75-7.85-33.08s2.62-23.24,7.85-32.75ZM640.51,516.64c-3.56-6.24-8.23-10.99-13.99-14.26-5.76-3.27-11.98-4.9-18.65-4.9s-12.89,1.6-18.65,4.79c-5.76,3.2-10.43,7.87-13.99,14.04-3.56,6.17-5.34,13.48-5.34,21.94s1.78,15.89,5.34,22.28c3.56,6.39,8.26,11.25,14.1,14.59,5.83,3.34,12.02,5.01,18.54,5.01s12.89-1.63,18.65-4.9c5.76-3.26,10.42-8.05,13.99-14.37,3.56-6.31,5.35-13.7,5.35-22.17s-1.78-15.82-5.35-22.06Z"/>
    <path class="cls-3" d="M705.34,505.39c5.23-9.58,12.47-16.97,21.72-22.17,9.25-5.2,19.86-7.8,31.84-7.8,15.16,0,27.71,3.53,37.64,10.58,9.93,7.06,16.64,17.12,20.13,30.19h-27.98c-2.27-6.09-5.91-10.84-10.92-14.26-5-3.41-11.3-5.12-18.88-5.12-10.62,0-19.07,3.68-25.36,11.03-6.29,7.35-9.44,17.64-9.44,30.86s3.14,23.54,9.44,30.97c6.29,7.43,14.75,11.14,25.36,11.14,15.01,0,24.94-6.46,29.8-19.38h27.98c-3.64,12.48-10.46,22.39-20.47,29.74-10.01,7.35-22.44,11.03-37.3,11.03-11.98,0-22.6-2.63-31.84-7.91-9.25-5.27-16.49-12.7-21.72-22.28-5.23-9.58-7.85-20.68-7.85-33.31s2.62-23.73,7.85-33.31Z"/>
    <path class="cls-3" d="M1082.56,548.28h-95.76c.76,9.8,4.47,17.68,11.14,23.61,6.67,5.94,14.86,8.91,24.57,8.91,13.95,0,23.8-5.72,29.57-17.15h27.98c-3.79,11.29-10.65,20.53-20.58,27.74-9.93,7.21-22.25,10.8-36.96,10.8-11.98,0-22.71-2.63-32.18-7.91-9.48-5.27-16.91-12.7-22.29-22.28-5.38-9.58-8.07-20.68-8.07-33.31s2.62-23.73,7.85-33.31c5.23-9.58,12.58-16.97,22.06-22.17,9.47-5.2,20.36-7.8,32.64-7.8s22.37,2.53,31.62,7.57c9.25,5.05,16.45,12.14,21.61,21.28,5.15,9.13,7.73,19.64,7.73,31.52,0,4.61-.31,8.77-.91,12.48ZM1056.41,527.78c-.15-9.36-3.56-16.86-10.24-22.5-6.67-5.64-14.94-8.47-24.79-8.47-8.95,0-16.6,2.79-22.97,8.35-6.37,5.57-10.16,13.11-11.37,22.61h69.37Z"/>
    <path class="cls-3" d="M1150,480.66c6.29-3.49,13.76-5.24,22.4-5.24v26.29h-6.6c-10.16,0-17.86,2.53-23.09,7.58-5.23,5.05-7.85,13.81-7.85,26.29v64.61h-25.93v-122.75h25.93v17.82c3.79-6.24,8.83-11.1,15.12-14.59Z"/>
  </g>
</svg>